<svg width="129" height="128" viewBox="0 0 129 128" fill="none" xmlns="http://www.w3.org/2000/svg">
<g id="bulb-icon" clip-path="url(#clip0_580_309)">
<g id="bulb">
<path id="Vector" d="M75.5835 80.2948C80.554 79.0485 84.8362 76.2714 87.9674 72.2636C91.8066 67.3497 93.4254 61.1963 92.5258 54.9368C91.6261 48.6786 88.3171 43.0932 83.2123 39.2192C78.2665 35.4637 72.1634 33.773 66.0272 34.4585C59.8914 35.1441 54.4382 38.1258 50.6725 42.8541C47.4442 46.9076 45.7398 51.8088 45.7434 57.0281C45.7493 65.5008 42.9828 73.7123 37.9533 80.1497L32.4501 87.1935C30.009 90.318 30.6347 94.9002 33.8448 97.4082L39.2599 101.639C42.47 104.147 47.0676 103.645 49.5086 100.521L55.0114 93.4777C60.0966 86.9693 67.1945 82.3981 75.5835 80.2948V80.2948ZM48.7576 57.1047C48.7544 52.5563 50.2404 48.284 53.055 44.7498C59.8168 36.2596 72.542 34.838 81.4218 41.5809C85.8741 44.9666 88.7577 49.8282 89.5417 55.2838C90.3262 60.7408 88.9149 66.1054 85.568 70.3892C82.8383 73.8831 79.1059 76.304 74.7741 77.3902C65.9348 79.6065 58.3953 84.3583 52.9343 91.1476L40.692 81.5829C45.9034 74.7059 48.7638 66.0366 48.7576 57.1047V57.1047ZM35.4677 88.2767L36.2062 87.3314L47.3982 98.277L47.1094 98.6466C46.9574 98.8412 46.7884 99.0146 46.6106 99.1743L35.4677 88.2767ZM38.0427 84.9809L38.8709 83.9208L51.1309 93.4994L49.2346 95.9265L38.0427 84.9809V84.9809ZM35.6692 95.0731C34.3804 94.0662 33.8017 92.4908 34.0204 91.0078L43.4484 100.228C42.6189 100.162 41.7941 99.8582 41.0845 99.3038L35.6693 95.073L35.6692 95.0731Z" fill="black"/>
<path id="Vector_2" d="M56.0187 50.1309C56.4025 49.4468 56.8483 48.7842 57.3439 48.162C57.8538 47.5219 57.7338 46.5787 57.0759 46.0552C56.4222 45.5354 55.4713 45.6262 54.9615 46.2663C54.3694 47.0096 53.8361 47.802 53.3764 48.6214C53.0125 49.2702 53.1992 50.0863 53.7837 50.5429C53.8425 50.5889 53.9055 50.6313 53.9723 50.6695C54.7019 51.0861 55.6181 50.8451 56.0187 50.1309Z" fill="black"/>
<path id="Vector_3" d="M49.2221 73.3827C49.3462 73.4797 49.4874 73.5594 49.6429 73.6169C50.4297 73.9072 51.2878 73.5148 51.5593 72.7407C53.3043 67.7667 54.1873 62.5522 54.1835 57.2423C54.1829 56.3646 54.2586 55.4893 54.4088 54.6406C54.5522 53.83 54.0036 53.0404 53.1836 52.8766C52.3638 52.7129 51.5829 53.2373 51.4395 54.0479C51.2596 55.0662 51.1686 56.115 51.1693 57.1659C51.1728 62.1418 50.3455 67.0283 48.7102 71.6894C48.4923 72.3106 48.7179 72.9888 49.2221 73.3827Z" fill="black"/>
<path id="Vector_4" d="M78.7357 71.4895C78.3266 70.7589 77.4071 70.4808 76.6824 70.8683C75.6311 71.4305 74.4991 71.8656 73.3178 72.1616C72.5161 72.3626 72.0473 73.1759 72.2707 73.978C72.3624 74.3074 72.5567 74.5836 72.8092 74.7809C73.1719 75.0642 73.6546 75.1849 74.1272 75.0662C75.5428 74.7113 76.901 74.1889 78.1641 73.5138C78.889 73.1264 79.1451 72.22 78.7357 71.4895V71.4895Z" fill="black"/>
<path id="Vector_5" d="M78.3756 45.9676C84.9901 51.1354 86.2791 60.5773 81.2493 67.0152C80.9633 67.3812 80.6579 67.7366 80.3415 68.0713C79.7793 68.6663 79.8209 69.6139 80.4346 70.1884C80.4694 70.2208 80.505 70.2514 80.5418 70.2801C81.1549 70.7591 82.0335 70.7127 82.564 70.1514C82.9421 69.7511 83.3071 69.3268 83.6486 68.8898C89.6844 61.1642 88.1375 49.8338 80.2001 43.6324C79.5376 43.1147 78.592 43.2179 78.0882 43.8627C77.5844 44.5076 77.7131 45.45 78.3756 45.9676V45.9676Z" fill="black"/>
</g>
<g id="light-vector">
<path id="Vector_6" d="M85.1757 37.4146C85.8382 37.9322 86.7838 37.8291 87.2876 37.1843L92.3962 30.6455C92.9 30.0006 92.7714 29.0582 92.1088 28.5406C91.4463 28.023 90.5007 28.1261 89.9969 28.7709L84.8883 35.3097C84.3845 35.9546 84.5131 36.897 85.1757 37.4146Z" fill="black"/>
<path id="Vector_7" d="M71.2365 30.2396C71.166 30.7881 71.4055 31.3124 71.8201 31.6363C72.0236 31.7953 72.2693 31.9061 72.5412 31.9475C73.3668 32.0733 74.1215 31.5129 74.2265 30.6956L75.2917 22.4118C75.3967 21.5943 74.8127 20.8298 73.987 20.704C73.1614 20.5782 72.4067 21.1386 72.3016 21.9558L71.2365 30.2396Z" fill="black"/>
<path id="Vector_8" d="M84.6481 90.9348L81.3852 83.1231C81.0633 82.3521 80.18 81.9704 79.4125 82.2703C78.6449 82.5699 78.2836 83.4376 78.6056 84.2084L81.8684 92.0202C81.9744 92.2739 82.1412 92.4854 82.3448 92.6445C82.7594 92.9685 83.3263 93.0739 83.8412 92.873C84.6087 92.5733 84.9699 91.7055 84.6481 90.9348V90.9348Z" fill="black"/>
<path id="Vector_9" d="M53.777 24.7586L57.0398 32.5704C57.1458 32.8241 57.3125 33.0356 57.5161 33.1947C57.9307 33.5187 58.4977 33.6242 59.0125 33.4232C59.7801 33.1235 60.1415 32.2558 59.8195 31.485L56.5566 23.6733C56.2349 22.9024 55.3516 22.5207 54.5839 22.8205C53.8163 23.1201 53.4551 23.9876 53.777 24.7586V24.7586Z" fill="black"/>
<path id="Vector_10" d="M99.0349 79.266L92.3168 74.0173C91.6543 73.4996 90.7087 73.6028 90.2049 74.2476C89.7011 74.8925 89.8298 75.8349 90.4923 76.3525L97.2104 81.6012C97.8729 82.1189 98.8185 82.0157 99.3223 81.3709C99.8261 80.726 99.6976 79.7837 99.0349 79.266Z" fill="black"/>
<path id="Vector_11" d="M48.2203 41.4455C48.7241 40.8007 48.5954 39.8582 47.9329 39.3406L41.2148 34.0919C40.5523 33.5743 39.6067 33.6774 39.1029 34.3222C38.5991 34.9671 38.7277 35.9095 39.3903 36.4272L46.1083 41.6759C46.771 42.1936 47.7165 42.0904 48.2203 41.4455Z" fill="black"/>
<path id="Vector_12" d="M95.9616 63.2316C96.1651 63.3905 96.4108 63.5013 96.6827 63.5427L105.052 64.8188C105.877 64.9446 106.632 64.3842 106.737 63.567C106.842 62.7497 106.258 61.9849 105.432 61.8591L97.0633 60.5831C96.2377 60.4572 95.483 61.0176 95.378 61.8349C95.3075 62.383 95.5472 62.9078 95.9616 63.2316Z" fill="black"/>
<path id="Vector_13" d="M41.7419 52.1507L33.3729 50.8746C32.5472 50.7487 31.7926 51.3091 31.6875 52.1264C31.6171 52.6745 31.8566 53.1991 32.2712 53.5231C32.4747 53.682 32.7204 53.7928 32.9923 53.8342L41.3613 55.1103C42.1869 55.2362 42.9416 54.6758 43.0467 53.8585C43.152 53.0412 42.5673 52.2763 41.7419 52.1507V52.1507Z" fill="black"/>
<path id="Vector_14" d="M93.537 48.3511C93.6429 48.6049 93.8097 48.8164 94.0133 48.9755C94.4279 49.2994 94.9949 49.4049 95.5097 49.2039L103.29 46.1664C104.057 45.8667 104.419 44.9989 104.097 44.2282C103.775 43.4576 102.892 43.0756 102.124 43.3754L94.3439 46.413C93.5763 46.7126 93.2151 47.5804 93.537 48.3511V48.3511Z" fill="black"/>
</g>
</g>
<defs>
<clipPath id="clip0_580_309">
<rect width="92.5369" height="90.0671" fill="white" transform="translate(55.5308 0.0548096) rotate(38)"/>
</clipPath>
</defs>
</svg>
